# xmcd
# Copyright (c) 1998 CDDB Inc.
#
# Track frame offsets:
#	150
#	17939
#	38826
#	61471
#	82882
#	101598
#	124859
#	143357
#	163977
#	181665
#	207132
#
# Disc length: 2942 seconds
#
# Revision: 1
# Processed by: cddbd v1.4PL0 Copyright (c) Steve Scherf et al.
# Submitted via: audiograbber 1.60
#
DISCID=8b0b7c0b
DTITLE=Josh Matinez - Buck Up Princess
DYEAR=1900
DGENRE=
TTITLE0=RAP (r.i.p.)
TTITLE1=Theories (f.Kaboom and Epedemic)
TTITLE2=BC Trees
TTITLE3=THe Long Way Home
TTITLE4=Never Say Die (f.Hanni Hotstepper)
TTITLE5=Nightmarezzz...
TTITLE6=Munks Inna Bunka
TTITLE7=Rainy Day
TTITLE8=Women Loving Women (f. AwolOne)
TTITLE9=Another DAY, Another DOLLAR
TTITLE10=Nova Scotia Baby!
EXTD=
EXTT0=
EXTT1=
EXTT2=
EXTT3=
EXTT4=
EXTT5=
EXTT6=
EXTT7=
EXTT8=
EXTT9=
EXTT10=
PLAYORDER=
